<?xml version="1.0" encoding="UTF-8" standalone="no"?><!DOCTYPE svg PUBLIC "-//W3C//DTD SVG 1.1//EN" "http://www.w3.org/Graphics/SVG/1.1/DTD/svg11.dtd"><svg width="100%" height="100%" viewBox="0 0 1067 1067" version="1.1" xmlns="http://www.w3.org/2000/svg" xmlns:xlink="http://www.w3.org/1999/xlink" xml:space="preserve" xmlns:serif="http://www.serif.com/" style="fill-rule:evenodd;clip-rule:evenodd;stroke-linejoin:round;stroke-miterlimit:2;"><rect x="415.469" y="738.146" width="242.052" height="49.917" style="fill:#b7b2ae;fill-rule:nonzero;"/><path d="M314.125,297.396l-18.083,111.271l52.021,88.083l21.156,-65.281l-55.094,-134.073Z" style="fill:#472d24;fill-rule:nonzero;"/><path d="M369.219,431.469l-21.156,65.281l149.812,282.552l12.719,0l-141.375,-347.833Z" style="fill:#ebeae4;fill-rule:nonzero;"/><path d="M314.125,297.396l76.583,30.427l28.282,108.375l-49.771,-4.729l-55.094,-134.073Z" style="fill:#351f1a;fill-rule:nonzero;"/><path d="M418.99,436.198l-49.771,-4.729l141.375,347.833l11.021,0l-102.625,-343.104Z" style="fill:#afb0aa;fill-rule:nonzero;"/><path d="M424.844,225.563l-38.719,99.656l32.865,110.979l33.073,-59.729l-27.219,-150.907Z" style="fill:#472d24;fill-rule:nonzero;"/><path d="M452.063,376.469l-33.073,59.729l94.187,343.104l10.104,0l-71.219,-402.833Z" style="fill:#ebeae4;fill-rule:nonzero;"/><path d="M424.844,225.563l67.76,59.927l6.365,115.468l-46.906,-24.489l-27.219,-150.907Z" style="fill:#351f1a;fill-rule:nonzero;"/><path d="M498.969,400.958l-46.906,-24.489l71.218,402.833l9.136,0l-33.448,-378.344Z" style="fill:#afb0aa;fill-rule:nonzero;"/><path d="M541.573,203.573l-55.271,81.76l12.667,115.625l41.833,-41.427l0.771,-155.958Z" style="fill:#472d24;fill-rule:nonzero;"/><path d="M540.802,359.531l-41.833,41.427l29.51,378.344l8.854,0l3.469,-419.771Z" style="fill:#ebeae4;fill-rule:nonzero;"/><path d="M541.573,203.573l54.687,83.271l-14.541,113.896l-40.917,-41.209l0.771,-155.958Z" style="fill:#351f1a;fill-rule:nonzero;"/><path d="M581.719,400.74l-40.917,-41.209l-3.469,419.771l8.802,0l35.584,-378.562Z" style="fill:#afb0aa;fill-rule:nonzero;"/><path d="M661.104,228.635l-68.646,56.719l-10.739,115.386l49.062,-22.428l30.323,-149.677Z" style="fill:#472d24;fill-rule:nonzero;"/><path d="M630.781,378.313l-49.062,22.427l-42.927,378.562l9.26,0l82.729,-400.989Z" style="fill:#ebeae4;fill-rule:nonzero;"/><path d="M661.104,228.635l36.802,101.771l-35.604,103.761l-31.521,-55.854l30.323,-149.678Z" style="fill:#351f1a;fill-rule:nonzero;"/><path d="M630.781,378.313l-82.729,400.989l9.656,0l104.594,-345.135l-31.521,-55.854Z" style="fill:#afb0aa;fill-rule:nonzero;"/><path d="M768.417,299.208l-76.636,28.136l-30.073,107.354l49.834,-2.979l56.875,-132.511Z" style="fill:#472d24;fill-rule:nonzero;"/><path d="M661.708,434.698l-111.51,344.604l10.5,0l150.844,-347.583l-49.834,2.979Z" style="fill:#ebeae4;fill-rule:nonzero;"/><path d="M768.417,299.208l16.656,112.282l-53.479,86.218l-20.052,-65.989l56.875,-132.511Z" style="fill:#351f1a;fill-rule:nonzero;"/><path d="M711.542,431.719l-150.844,347.583l12.292,0l158.604,-281.594l-20.052,-65.989Z" style="fill:#afb0aa;fill-rule:nonzero;"/><path d="M371.427,388.448c-0.573,10.417 -9.115,18.385 -19.083,17.812l-3.209,-0.187c-9.968,-0.625 -17.583,-9.563 -17,-19.99l0.157,-3.375c0.583,-10.416 9.125,-18.416 19.093,-17.812l3.198,0.187c9.969,0.604 17.584,9.552 17.011,20l-0.167,3.365Z" style="fill:#c17521;fill-rule:nonzero;"/><path d="M368.313,386.458c-0.573,10.417 -9.125,18.427 -19.094,17.802l-3.209,-0.166c-9.958,-0.615 -17.572,-9.563 -17,-20l0.188,-3.365c0.573,-10.417 9.115,-18.417 19.094,-17.812l3.208,0.208c9.969,0.594 17.583,9.552 17.01,19.99l-0.197,3.343Z" style="fill:#f2a040;fill-rule:nonzero;"/><path d="M465.74,340.271c-0.573,10.417 -9.125,18.417 -19.084,17.802l-3.208,-0.188c-9.979,-0.614 -17.583,-9.562 -17.01,-19.979l0.177,-3.375c0.583,-10.416 9.135,-18.406 19.093,-17.812l3.198,0.198c9.969,0.604 17.584,9.552 17,19.979l-0.166,3.375Z" style="fill:#c17521;fill-rule:nonzero;"/><path d="M462.615,338.281c-0.573,10.417 -9.125,18.417 -19.094,17.802l-3.198,-0.187c-9.958,-0.604 -17.573,-9.563 -17,-20l0.187,-3.365c0.573,-10.416 9.115,-18.406 19.084,-17.812l3.208,0.208c9.969,0.604 17.583,9.552 17.01,20.01l-0.197,3.344Z" style="fill:#f2a040;fill-rule:nonzero;"/><path d="M561.917,320.063c-0.573,10.416 -9.115,18.416 -19.084,17.822l-3.208,-0.187c-9.969,-0.615 -17.594,-9.563 -17.01,-19.979l0.187,-3.375c0.573,-10.417 9.125,-18.417 19.094,-17.813l3.208,0.209c9.969,0.604 17.583,9.541 17,19.979l-0.187,3.344Z" style="fill:#c17521;fill-rule:nonzero;"/><path d="M558.802,318.073c-0.562,10.417 -9.114,18.417 -19.094,17.792l-3.198,-0.178c-9.968,-0.614 -17.583,-9.562 -17,-20l0.188,-3.354c0.573,-10.416 9.115,-18.416 19.083,-17.812l3.209,0.208c9.968,0.573 17.573,9.552 17.01,19.99l-0.198,3.354Z" style="fill:#f2a040;fill-rule:nonzero;"/><path d="M662.438,335.281c-0.573,10.417 -9.115,18.417 -19.084,17.802l-3.208,-0.177c-9.969,-0.614 -17.584,-9.562 -17,-19.989l0.187,-3.365c0.584,-10.417 9.125,-18.417 19.094,-17.812l3.198,0.197c9.969,0.605 17.583,9.553 17,20l-0.188,3.344Z" style="fill:#c17521;fill-rule:nonzero;"/><path d="M659.323,333.271c-0.583,10.416 -9.125,18.427 -19.104,17.812l-3.209,-0.187c-9.958,-0.625 -17.572,-9.563 -17,-20l0.188,-3.354c0.583,-10.417 9.125,-18.427 19.083,-17.813l3.209,0.198c9.968,0.594 17.583,9.563 17.01,20l-0.177,3.344Z" style="fill:#f2a040;fill-rule:nonzero;"/><path d="M752.708,387.438c-0.573,10.416 -9.114,18.406 -19.083,17.822l-3.198,-0.208c-9.969,-0.604 -17.594,-9.562 -17.01,-19.979l0.177,-3.375c0.583,-10.417 9.125,-18.406 19.093,-17.813l3.209,0.188c9.969,0.604 17.583,9.552 17,19.99l-0.188,3.375Z" style="fill:#c17521;fill-rule:nonzero;"/><path d="M749.594,385.417c-0.573,10.416 -9.125,18.427 -19.094,17.802l-3.198,-0.177c-9.969,-0.625 -17.583,-9.563 -17.01,-20l0.198,-3.365c0.572,-10.417 9.104,-18.417 19.083,-17.812l3.198,0.187c9.969,0.604 17.583,9.552 17.021,20l-0.198,3.365Z" style="fill:#f2a040;fill-rule:nonzero;"/><path d="M415.583,656.354l242.021,0l0,46.344l-242.021,-0l0,-46.344Zm-0.114,99.761l242.135,-0l0,23.187l-242.135,0l-0,-23.187Z" style="fill:#c4182f;fill-rule:nonzero;"/><rect x="415.583" y="702.698" width="242.021" height="53.417" style="fill:#d8d4d0;fill-rule:nonzero;"/><path d="M415.583,656.354l122.386,0l-0,46.344l-122.386,-0l0,-46.344Zm-0.114,99.761l123.312,-0l0,23.187l-123.312,0l-0,-23.187Z" style="fill:#f35153;fill-rule:nonzero;"/><rect x="456.208" y="656.729" width="38.896" height="45.969" style="fill:#c4182f;fill-rule:nonzero;"/><rect x="579.125" y="656.542" width="38.896" height="45.969" style="fill:#f35153;fill-rule:nonzero;"/><path d="M475.646,702.51l-59.865,26.896l59.865,26.709l24.208,-0l-56.604,-26.709l56.604,-26.708" style="fill:#3cabee;fill-rule:nonzero;"/><path d="M550.74,708.094l-12.615,-5.407l-0.312,0l-12.271,5.407l-47.417,21.312l47.594,21.219l12.937,5.479l0.302,0l11.636,-5.479l47.593,-21.219l-47.447,-21.312Zm-12.605,36.698l-32.552,-15.355l32.552,-15.354l32.563,15.355l-32.563,15.354Z" style="fill:#c4182f;fill-rule:nonzero;"/><path d="M525.583,702.51l0.146,0l-0.146,0Zm0.302,0l-0.156,0l0.156,0Z" style="fill:#40a3c6;fill-rule:nonzero;"/><path d="M597.656,702.604l59.865,26.896l-59.865,26.708l-24.208,0l56.615,-26.708l-56.615,-26.698" style="fill:#0d529f;fill-rule:nonzero;"/></svg>